<svg width="29" height="29" viewBox="0 0 29 29" fill="none" xmlns="http://www.w3.org/2000/svg">
<path d="M23.1976 27.067H1.93314V5.80252H14.7112L16.6443 3.86938H1.93314C1.42044 3.86938 0.928735 4.07305 0.566202 4.43559C0.203669 4.79812 0 5.28982 0 5.80252V27.067C0 27.5797 0.203669 28.0714 0.566202 28.4339C0.928735 28.7965 1.42044 29.0001 1.93314 29.0001H23.1976C23.7103 29.0001 24.202 28.7965 24.5646 28.4339C24.9271 28.0714 25.1308 27.5797 25.1308 27.067V12.5685L23.1976 14.5016V27.067Z" fill="#818181"/>
<path d="M28.5433 3.71463L25.2859 0.457301C25.1414 0.312345 24.9696 0.197337 24.7805 0.118865C24.5915 0.0403929 24.3888 0 24.184 0C23.9793 0 23.7766 0.0403929 23.5875 0.118865C23.3984 0.197337 23.2267 0.312345 23.0821 0.457301L9.8305 13.7863L8.75761 18.4355C8.71191 18.6608 8.71671 18.8935 8.77168 19.1168C8.82666 19.3401 8.93043 19.5484 9.07554 19.7268C9.22065 19.9052 9.40349 20.0492 9.61091 20.1485C9.81833 20.2477 10.0452 20.2998 10.2751 20.3009C10.394 20.314 10.5139 20.314 10.6328 20.3009L15.3206 19.2667L28.5433 5.91841C28.6882 5.77385 28.8032 5.60211 28.8817 5.41303C28.9602 5.22395 29.0006 5.02124 29.0006 4.81652C29.0006 4.6118 28.9602 4.4091 28.8817 4.22001C28.8032 4.03093 28.6882 3.85919 28.5433 3.71463ZM14.3154 17.4786L10.7777 18.2615L11.5993 14.7528L21.5743 4.7102L24.3 7.43592L14.3154 17.4786ZM25.3922 6.3437L22.6665 3.61798L24.1647 2.0908L26.9098 4.83585L25.3922 6.3437Z" fill="#818181"/>
</svg>
