<svg width="16" height="10" viewBox="0 0 16 10" fill="none" xmlns="http://www.w3.org/2000/svg">
<path d="M5.33333 9.28571C5.33333 9.09627 5.40357 8.91459 5.5286 8.78064C5.65362 8.64668 5.82319 8.57143 6 8.57143H10C10.1768 8.57143 10.3464 8.64668 10.4714 8.78064C10.5964 8.91459 10.6667 9.09627 10.6667 9.28571C10.6667 9.47515 10.5964 9.65684 10.4714 9.79079C10.3464 9.92475 10.1768 10 10 10H6C5.82319 10 5.65362 9.92475 5.5286 9.79079C5.40357 9.65684 5.33333 9.47515 5.33333 9.28571ZM2.66667 5C2.66667 4.81056 2.7369 4.62888 2.86193 4.49492C2.98695 4.36097 3.15652 4.28571 3.33333 4.28571H12.6667C12.8435 4.28571 13.013 4.36097 13.1381 4.49492C13.2631 4.62888 13.3333 4.81056 13.3333 5C13.3333 5.18944 13.2631 5.37112 13.1381 5.50508C13.013 5.63903 12.8435 5.71429 12.6667 5.71429H3.33333C3.15652 5.71429 2.98695 5.63903 2.86193 5.50508C2.7369 5.37112 2.66667 5.18944 2.66667 5ZM0 0.714286C0 0.524845 0.070238 0.343164 0.195262 0.20921C0.320287 0.075255 0.489856 0 0.666667 0H15.3333C15.5101 0 15.6797 0.075255 15.8047 0.20921C15.9298 0.343164 16 0.524845 16 0.714286C16 0.903726 15.9298 1.08541 15.8047 1.21936C15.6797 1.35332 15.5101 1.42857 15.3333 1.42857H0.666667C0.489856 1.42857 0.320287 1.35332 0.195262 1.21936C0.070238 1.08541 0 0.903726 0 0.714286Z" fill="black"/>
</svg>
