<svg width="30" height="24" viewBox="0 0 30 24" fill="none" xmlns="http://www.w3.org/2000/svg">
<path d="M2.38714 12.1635V11.8365C4.54071 11.6319 5.595 10.6027 5.595 8.6266V5.02148C5.595 2.82672 6.43071 1.93597 8.49643 1.93597H9.08143V0H8.27571C4.82143 0 3.19286 1.5227 3.19286 4.71855V7.77598C3.19286 9.97074 2.38714 10.697 0 10.697V13.303C2.38714 13.303 3.19286 14.0293 3.19286 16.224V19.2815C3.19286 22.4773 4.81929 24 8.27571 24H9.08143V22.066H8.49643C6.43071 22.066 5.595 21.1753 5.595 18.9805V15.3734C5.595 13.3993 4.54071 12.3701 2.38714 12.1635ZM27.6129 11.8365V12.1635C25.4593 12.3701 24.405 13.3993 24.405 15.3734V18.9805C24.405 21.1753 23.5693 22.066 21.5036 22.066H20.9186V24H21.7243C25.1807 24 26.8071 22.4773 26.8071 19.2815V16.224C26.8071 14.0293 27.6129 13.303 30 13.303V10.697C27.6129 10.697 26.8071 9.97074 26.8071 7.77598V4.71855C26.8071 1.5227 25.1786 0 21.7243 0H20.9186V1.93396H21.5036C23.5693 1.93396 24.405 2.82471 24.405 5.01948V8.6266C24.405 10.6007 25.4593 11.6299 27.6129 11.8365Z" fill="white"/>
</svg>
